HIERARCHY
ROOT Pelvis
{
	OFFSET 0.000000 0.000000 0.000000
	CHANNELS 6 Xposition Yposition Zposition Zrotation Yrotation Xrotation 
	JOINT Left_hip
	{
		OFFSET 0.070241 -0.085575 -0.010474
		CHANNELS 3 Zrotation Yrotation Xrotation
		JOINT Left_knee
		{
			OFFSET 0.032125 -0.356873 -0.000555
			CHANNELS 3 Zrotation Yrotation Xrotation
			JOINT Left_ankle
			{
				OFFSET -0.010961 -0.370212 -0.042278
				CHANNELS 3 Zrotation Yrotation Xrotation
				JOINT Left_foot
				{
					OFFSET 0.023322 -0.052281 0.110104
					CHANNELS 3 Zrotation Yrotation Xrotation
					End Site
					{
						OFFSET 0.000000 0.000000 0.000000
					}
				}
			}
		}
	}
	JOINT Right_hip
	{
		OFFSET -0.068518 -0.084320 -0.007402
		CHANNELS 3 Zrotation Yrotation Xrotation
		JOINT Right_knee
		{
			OFFSET -0.037345 -0.364815 -0.003619
			CHANNELS 3 Zrotation Yrotation Xrotation
			JOINT Right_ankle
			{
				OFFSET 0.013394 -0.370006 -0.039954
				CHANNELS 3 Zrotation Yrotation Xrotation
				JOINT Right_foot
				{
					OFFSET -0.019600 -0.045455 0.113223
					CHANNELS 3 Zrotation Yrotation Xrotation
					End Site
					{
						OFFSET 0.000000 0.000000 0.000000
					}
				}
			}
		}
	}
	JOINT Spine1
	{
		OFFSET -0.002404 0.098129 -0.018169
		CHANNELS 3 Zrotation Yrotation Xrotation
		JOINT Spine2
		{
			OFFSET 0.003989 0.127209 -0.001742
			CHANNELS 3 Zrotation Yrotation Xrotation
			JOINT Spine3
			{
				OFFSET 0.001758 0.046641 0.023475
				CHANNELS 3 Zrotation Yrotation Xrotation
				JOINT Neck
				{
					OFFSET -0.003759 0.194901 -0.039982
					CHANNELS 3 Zrotation Yrotation Xrotation
					JOINT Head
					{
						OFFSET 0.003999 0.063756 0.047665
						CHANNELS 3 Zrotation Yrotation Xrotation
						End Site
						{
							OFFSET 0.000000 0.000000 0.000000
						}
					}
				}
				JOINT Left_collar
				{
					OFFSET 0.071816 0.109048 -0.028973
					CHANNELS 3 Zrotation Yrotation Xrotation
					JOINT Left_shoulder
					{
						OFFSET 0.084027 0.032269 -0.006525
						CHANNELS 3 Zrotation Yrotation Xrotation
						JOINT Left_elbow
						{
							OFFSET 0.243854 -0.013992 -0.025905
							CHANNELS 3 Zrotation Yrotation Xrotation
							JOINT Left_wrist
							{
								OFFSET 0.232156 0.008196 -0.000339
								CHANNELS 3 Zrotation Yrotation Xrotation
								JOINT Left_palm
								{
									OFFSET 0.075377 -0.009461 -0.012494
									CHANNELS 3 Zrotation Yrotation Xrotation
									End Site
									{
										OFFSET 0.000000 0.000000 0.000000
									}
								}
							}
						}
					}
				}
				JOINT Right_collar
				{
					OFFSET -0.073768 0.107001 -0.033755
					CHANNELS 3 Zrotation Yrotation Xrotation
					JOINT Right_shoulder
					{
						OFFSET -0.086837 0.032868 -0.009431
						CHANNELS 3 Zrotation Yrotation Xrotation
						JOINT Right_elbow
						{
							OFFSET -0.236446 -0.012544 -0.018747
							CHANNELS 3 Zrotation Yrotation Xrotation
							JOINT Right_wrist
							{
								OFFSET -0.236110 0.006124 -0.004327
								CHANNELS 3 Zrotation Yrotation Xrotation
								JOINT Right_palm
								{
									OFFSET -0.074800 -0.006875 -0.009610
									CHANNELS 3 Zrotation Yrotation Xrotation
									End Site
									{
										OFFSET 0.000000 0.000000 0.000000
									}
								}
							}
						}
					}
				}
			}
		}
	}
}
MOTION
Frames: 9
Frame Time: 0.100000
-0.988502 -0.234286 1.142819 13.396712 43.040643 -168.193244 -7.224128 5.080005 7.109277 -2.503178 0.532337 -9.651683 5.395986 15.881470 2.322389 4.922896 7.479201 -13.318740 -2.436585 1.441203 -5.045507 4.503398 9.541178 56.847395 15.177400 -10.809108 3.069996 -17.944824 7.599493 -17.480929 0.059640 -1.764944 3.183537 1.004342 0.686446 -1.695919 -1.384645 -1.912107 2.630430 0.163504 11.606734 -7.078819 -6.896215 10.358721 1.524920 -30.582396 8.576598 5.535566 -57.971726 8.181160 22.554751 -23.959462 -23.275515 57.677630 24.871031 -13.522158 27.238327 -15.981318 -10.373072 -26.985609 30.385455 -6.554834 5.860878 57.914800 -12.929926 28.892098 20.207262 28.254568 36.399363 -27.798486 11.947871 15.086498 18.229164 10.869038 -17.375114 
-1.017195 -0.226448 1.088433 12.577385 36.347610 -168.856905 -6.649399 5.498460 12.194949 -1.200406 -5.318837 -9.739830 3.099627 14.689520 -0.570801 3.925131 6.204623 -13.369796 0.708020 4.704579 -14.377491 1.929451 5.497230 48.263552 10.036361 -12.522636 -12.091208 -14.406341 7.326151 -9.392271 0.165666 -5.143592 4.277798 1.124832 -0.233142 -2.638663 -1.019277 -3.800433 2.883886 1.132073 12.131463 -5.903917 -7.165243 8.753670 1.721496 -31.000953 9.118397 5.973859 -59.294285 8.024011 23.086757 -22.359287 -22.580874 58.403598 23.160272 -13.467144 26.469119 -12.632623 -8.009150 -24.839743 30.585043 -8.297135 4.550156 58.068818 -13.988971 27.826618 17.771366 27.885795 37.065036 -26.770653 11.719147 13.249611 14.719764 9.059348 -14.219825 
-1.043878 -0.214164 1.033599 11.308719 28.808826 -169.934926 -5.451136 5.520302 17.523969 -0.022030 -10.230999 -9.780511 -0.956200 15.291743 -4.302871 4.827322 -2.928742 -9.459857 2.845431 5.340699 -17.615287 -2.314171 4.928872 23.656211 12.863134 -12.008713 -7.734096 -17.689082 7.158058 -5.039031 -0.488444 -5.936419 5.703770 0.994624 -1.202285 -3.455901 0.301658 -3.630652 4.714567 -2.008713 8.653045 -7.099479 -2.038699 9.428484 0.402460 -28.567099 8.180961 6.385809 -62.297328 10.456837 25.060708 -20.420982 -29.511679 45.330312 78.567897 -19.575274 0.709685 -17.121172 -10.007332 -17.459740 29.845633 -6.547647 4.477374 59.242708 -13.096967 27.332749 19.572627 22.947183 33.449177 -55.014413 18.897009 7.477884 15.225382 10.364177 -13.449764 
-1.068587 -0.198705 0.975590 8.454611 21.522745 -168.564268 -6.952400 1.594645 18.775576 0.687743 -17.244375 -8.176071 3.796269 22.592143 -5.359062 -0.011082 -10.873144 -6.089574 0.362841 6.915587 -21.368626 -0.221411 3.640747 2.339365 7.690220 -7.172624 -4.425613 -2.867134 -11.417332 5.285163 -0.687012 -4.816315 6.889247 -0.046746 -0.731794 -10.433967 0.831102 -2.213417 7.842083 -5.777792 2.661301 -6.039427 4.013375 9.286932 0.096649 -27.512530 8.799787 5.266278 -61.245947 10.139348 31.890857 -21.928319 -28.624890 37.733326 108.645132 -19.660207 -10.558560 -22.225317 -6.998634 -15.542925 28.817088 -6.107902 4.514011 61.477404 -14.302192 32.161339 16.411392 22.577847 26.751825 -69.467001 19.228175 3.070977 11.692673 9.805101 -16.322428 
-1.095950 -0.179187 0.903718 5.883766 14.958759 -167.632530 -6.310280 1.232322 19.907635 -0.259113 -21.023097 -2.902729 2.498249 20.832314 -6.654388 -0.241403 -10.897762 -6.692563 -0.086259 5.789708 -23.849890 0.488590 2.519492 -0.070163 9.030597 -6.075080 -6.855398 -5.573265 -9.808973 5.659410 -0.464904 -4.534348 5.462687 -0.664035 0.386592 -9.830777 0.864073 -1.361042 7.470907 -6.019204 1.112686 -6.748043 4.404598 6.758516 -0.429265 -27.155244 9.265999 5.134633 -60.953526 10.935376 30.788001 -21.347840 -30.689627 34.372720 107.049730 -17.048845 -11.555386 -21.430703 -6.510551 -12.669240 28.931069 -4.201624 5.578838 60.056319 -12.750178 32.332550 19.784139 21.609490 30.686155 -69.413961 20.424099 5.060607 11.840391 10.082906 -15.201122 
-1.125612 -0.165094 0.815714 4.430733 6.940071 -166.432609 -3.911026 -1.070526 18.847471 -1.788835 -24.052812 6.942513 1.025605 18.460223 -1.816486 -0.050660 -12.128464 -8.839708 -0.434896 8.096592 -24.442927 0.605390 4.209324 8.289724 5.248119 -6.746258 0.476936 -1.033355 -12.819991 4.437355 1.159345 -4.890032 3.744793 -0.034344 1.152454 -10.352689 0.721611 -1.205123 5.939497 -7.448263 -1.736694 -5.437735 3.807377 7.926765 -0.516336 -29.272389 8.929991 5.876637 -59.808305 10.820818 31.405357 -19.941286 -29.890890 33.428122 105.942595 -18.452535 -10.959683 -22.302743 -6.954931 -14.822218 30.356597 -2.998871 7.255874 58.631295 -12.640833 33.205461 19.971162 21.543819 30.070411 -69.093484 18.714892 1.962153 11.280270 9.214501 -14.687951 
-1.147917 -0.159572 0.723701 4.786189 2.059355 -168.219971 -0.682567 -0.467049 11.359182 -5.005293 -18.725912 28.813507 -8.955957 9.606570 18.731929 3.230330 1.922437 -24.130061 2.426720 6.238612 -16.289174 0.850649 2.241725 9.708650 4.982334 -7.567478 -0.240462 -11.797450 -5.159577 -2.395816 5.599555 -4.231765 3.353833 -1.388951 2.307699 -6.701331 -0.081606 -0.822050 2.236803 -4.972951 0.858574 -3.879024 -0.418090 4.820087 -0.853176 -29.383681 10.157251 5.342314 -62.298015 8.388222 25.339253 -20.313558 -19.754473 44.763023 26.816878 -17.188165 12.584191 -9.696239 -4.728281 -17.278519 27.495400 -2.423320 9.176873 60.280109 -11.643240 29.815484 21.234896 23.933548 35.566685 -47.780131 14.023757 5.452812 15.854111 8.635391 -12.541755 
-1.166278 -0.154206 0.654338 3.001541 -3.164334 -170.796497 -0.849534 -2.757888 -2.153464 -6.652067 -10.627995 51.470484 -5.192478 9.794893 25.411370 -2.299318 1.184773 -25.616855 3.559868 2.750954 -6.753421 0.471991 1.457255 8.016935 -2.887113 -4.359561 -3.025118 -1.046137 -12.133986 -1.057299 5.198743 -0.601527 7.858183 -1.651813 1.469027 -8.519714 -0.332972 0.275340 1.903034 -5.721574 -2.477978 -2.907607 1.816785 3.477036 -1.285167 -30.186090 9.097760 5.172044 -60.864638 8.001392 25.734177 -19.588614 -17.213097 45.588643 25.356161 -16.293573 12.949490 -11.178201 -3.395001 -16.631818 28.733647 -1.046269 10.426718 63.152205 -12.031102 29.096254 17.379439 22.620618 32.124202 -47.553485 10.640103 1.813341 15.677491 8.600684 -12.171061 
-1.180158 -0.147853 0.590133 1.561078 -4.911920 -171.121816 -0.467339 -3.802056 -13.709733 -2.630494 0.679823 52.653449 2.388042 15.726096 3.847214 0.131498 1.560797 -18.308283 3.851198 0.110863 0.783152 -0.337735 3.420349 3.835087 0.824332 -5.212444 -5.962938 -4.667700 -10.479482 -0.626490 3.546489 3.768600 9.616544 -1.495707 1.390105 -9.778354 -0.137968 2.189919 2.868971 -5.082293 -3.714462 -4.376066 3.143746 0.344543 0.845767 -29.453258 9.229159 3.988228 -60.578703 8.879584 22.498579 -17.670651 -19.623680 44.865456 17.225673 -12.300395 12.819891 -12.388406 -4.452666 -14.626134 29.596034 -1.015557 10.022403 65.119746 -12.037996 27.639529 15.160604 22.484501 36.545040 -31.261887 7.970372 8.438329 14.282020 10.011157 -12.817493 
